<svg width="34" height="51" xmlns="http://www.w3.org/2000/svg">

 <g>
  <title>background</title>
  <rect fill="none" id="canvas_background" height="53" width="36" y="-1" x="-1"/>
 </g>
 <g>
  <title>Layer 1</title>
  <path stroke="null" id="svg_1" d="m33.58013,10.41553a2.13423,2.57219 0 0 0 -0.89985,-0.1743c-0.41633,0.03521 -0.75158,0.23856 -0.95098,0.57218c-1.17156,1.97888 -2.13204,5.71569 -2.90626,8.71922c-0.35497,1.38821 -0.83266,3.24649 -1.1774,4.12853c-0.36009,-2.47096 0.04675,-11.52292 0.20451,-15.00885l0.00219,-0.05634c0.10956,-2.42166 0.12417,-2.84684 0.1008,-3.03346c-0.17384,-1.32835 -0.61573,-2.20071 -1.31399,-2.59068c-0.70557,-0.39613 -1.62149,-0.22007 -2.60899,0.4956c-0.49448,0.36092 -0.6318,1.5986 -1.05616,7.20953l-0.00146,0.02465c-0.23373,3.08276 -0.77276,10.18137 -1.43523,11.36447c-0.7472,-1.65493 -1.7756,-11.05197 -2.21968,-15.11977c-0.31042,-2.8486 -0.49156,-4.48417 -0.61354,-4.97801c-0.25564,-1.03521 -1.33663,-1.9155 -2.40667,-1.9648c-0.89109,-0.05282 -1.62149,0.49296 -1.97062,1.44191c-0.65298,0.87588 -0.42217,3.77818 0.29946,10.6532c0.34329,3.2729 1.05177,10.03084 0.60623,10.78965c-0.89036,-0.11708 -2.41762,-4.35037 -4.53943,-12.58719c-0.59601,-2.30635 -0.78007,-3.00001 -0.96267,-3.30371c-0.36082,-1.0581 -1.58643,-1.87413 -2.68495,-1.7817a2.32486,2.80195 0 0 0 -0.27536,0.04313c-0.57482,0.13732 -1.88735,0.77553 -1.60688,3.72008c0.77422,4.08188 1.61637,7.07837 2.43296,9.98771l0.0168,0.0581c0.48864,1.74296 0.95098,3.3891 1.38045,5.21569c1.0116,4.31339 0.61792,6.98946 0.61354,7.02027c-0.0336,0.27465 -0.10445,0.44278 -0.21035,0.50176a0.4061,0.48944 0 0 1 -0.14243,0.03961c-0.32138,0.02641 -0.80198,-0.22887 -1.04958,-0.39613c-0.56679,-1.30458 -3.38613,-7.52115 -5.94107,-8.38383l-0.09203,-0.03257l-0.09276,0.01056c-0.9371,0.10651 -1.62587,0.53345 -2.04731,1.26849c-0.66758,1.16198 -0.39076,2.64261 -0.3243,2.94015l0.03798,0.10563c0.02045,0.04489 2.06995,4.54667 2.38694,6.64087c0.27317,1.79578 1.68795,3.74121 2.82591,5.30459l0.04675,0.06426c0.37104,0.51057 0.69096,0.95335 0.94368,1.36268c3.30067,4.14878 8.52011,7.63823 8.56247,7.66728c0.65152,0.57835 1.01306,1.13821 1.05177,1.61972a0.58286,0.70247 0 0 1 -0.11686,0.51057l-0.11321,0.14261l0.72163,0.84507l13.77022,-1.1655l0.58724,-3.24297c-1.10582,-14.43843 1.4367,-16.96484 1.43012,-17.0159c0.0073,-0.28785 0.51566,-3.06603 0.92469,-5.31076l0.01242,-0.05722c0.81586,-4.47185 1.82965,-10.03524 2.02467,-12.15057c0.08473,-0.90493 -0.39588,-1.73592 -1.22342,-2.11356z" fill="#3B4262"/>
 </g>
</svg>