<svg width="33" height="45" xmlns="http://www.w3.org/2000/svg">

 <g>
  <title>background</title>
  <rect fill="none" id="canvas_background" height="47" width="35" y="-1" x="-1"/>
 </g>
 <g>
  <title>Layer 1</title>
  <path stroke="null" id="svg_1" d="m28.87146,11.66339c-0.41022,-7.06405 -6.21969,-6.34247 -6.21969,-6.34247c-2.45171,-5.90271 -6.28231,-1.62728 -6.28231,-1.62728c-2.94307,-5.78492 -6.63246,-0.42405 -6.63246,-0.42405c-6.36218,-0.9371 -6.11554,6.16534 -6.11554,6.16534c-0.14952,2.25812 0.89647,9.24278 0.89647,9.24278c-0.94375,-4.02588 -2.99036,-0.68407 -2.99036,-0.68407c-2.51752,5.30328 -0.62299,8.2062 -0.62299,8.2062c3.40568,5.44986 10.66305,11.99127 10.66305,11.99127c2.62806,2.0557 1.51626,3.88889 1.51626,3.88889l15.8949,-3.58612l0.36485,-4.11663c2.41657,-9.97832 -0.4722,-22.71386 -0.4722,-22.71386z" fill="#3B4262"/>
 </g>
</svg>