<svg width="31" height="50" xmlns="http://www.w3.org/2000/svg">

 <g>
  <title>background</title>
  <rect fill="none" id="canvas_background" height="52" width="33" y="-1" x="-1"/>
 </g>
 <g>
  <title>Layer 1</title>
  <path stroke="null" id="svg_1" d="m33.14772,26.3008l-0.60768,-0.66831c-1.45195,-1.59618 -3.82562,-1.94277 -5.59796,-0.82373l-3.78549,2.37717l0.78864,-19.04068c0,-1.59618 -1.18156,-2.8955 -2.63562,-2.8955c-0.31405,0 -0.61613,0.06139 -0.89638,0.17252l0.09436,-1.0219c0,-1.61405 -1.20057,-2.92736 -2.67434,-2.92736c-1.36323,0 -2.50605,1.12292 -2.6504,2.56368l-2.4293,16.12498c-0.03169,0.21914 -0.37742,0.19661 -0.41404,0.05828l-2.86939,-12.92718a2.57576,2.84266 0 0 0 -2.46592,-2.04301c-0.78723,0 -1.51884,0.38933 -2.00893,1.06852a2.52929,2.79137 0 0 0 -0.48586,2.39349l0.55768,2.60331a2.35185,2.59554 0 0 0 -0.94003,0.13055a2.42719,2.67869 0 0 0 -1.63784,2.967l1.68854,10.66657c0,4.20804 0.67105,7.32268 1.23507,9.19318a9.58342,10.57643 0 0 1 0.48375,3.33457c0,0.99781 -0.12604,1.99095 -0.37601,2.9499l-1.30971,5.03721c-0.07323,0.28442 -0.02112,0.5906 0.13942,0.82762c0.16336,0.23624 0.41685,0.37534 0.68654,0.37534l15.47008,0a0.85765,0.94652 0 0 0 0.81681,-1.24337c-0.00915,-0.02409 -0.72738,-2.46265 -0.04718,-5.77935c0.86258,-0.76934 3.88266,-3.46745 4.96704,-4.5554c1.79275,-1.799 6.70417,-7.35765 6.9126,-7.59389a0.85202,0.9403 0 0 0 -0.00845,-1.32497l0,0.00078z" fill="#3B4262"/>
 </g>
</svg>