<svg width="36" height="52" xmlns="http://www.w3.org/2000/svg">

 <g>
  <title>background</title>
  <rect fill="none" id="canvas_background" height="54" width="38" y="-1" x="-1"/>
 </g>
 <g>
  <title>Layer 1</title>
  <path stroke="null" id="svg_1" d="m7.81073,23.12479l5.06116,-7.23491c-2.10377,-0.3568 -5.96698,-0.4359 -9.13063,2.78133c-4.98792,5.07174 -7.00834,16.02684 -7.42926,18.67921l12.67647,12.88957c2.28224,-0.19947 12.38603,-1.57079 22.12279,-11.46924c0.1027,-0.21408 2.47502,-1.99551 0.53541,-3.96695c-0.92603,-0.94144 -2.45734,-0.92339 -3.40273,0.03783c-0.48153,0.49006 -1.22993,0.49608 -1.70136,0.0172c-0.47143,-0.47889 -0.4647,-1.24064 0.01684,-1.72984l3.44061,-3.49838c1.74767,-1.77713 0.10018,-4.77598 -2.34032,-4.0555l-2.81596,2.45118c-0.51437,0.45567 -1.2796,0.37744 -1.70221,-0.12037c-0.43692,-0.51328 -0.34347,-1.29222 0.15406,-1.7307c9.83862,-8.77646 8.40159,-7.71981 14.73225,-13.75191c2.36474,-2.00239 -0.61034,-5.54289 -2.94056,-3.51643l-15.31312,14.00124c-0.44533,0.38517 -1.12807,0.39291 -1.56583,-0.0172c-0.50595,-0.4445 -0.51773,-1.08502 -0.18689,-1.59056l10.68046,-16.88231c1.56078,-2.14941 -1.51111,-4.53697 -3.15607,-2.37037l-15.79129,22.45701c-0.38051,0.55885 -1.14827,0.68781 -1.67106,0.29662a1.15922,1.18389 0 0 1 -0.27192,-1.67654l-0.00084,0z" fill="#3B4262"/>
 </g>
</svg>