<svg width="39" height="51" xmlns="http://www.w3.org/2000/svg">

 <g>
  <title>background</title>
  <rect fill="none" id="canvas_background" height="53" width="41" y="-1" x="-1"/>
 </g>
 <g>
  <title>Layer 1</title>
  <path stroke="null" id="svg_1" d="m28.29741,3.81084c1.75925,-1.69891 3.44549,-2.06673 4.74763,-1.03549c2.91973,2.31052 2.49695,10.91126 1.30214,14.63783c-0.6745,2.1041 -1.86985,3.64162 -3.55609,4.57602c-0.65379,3.22708 -1.57128,6.00056 -2.74266,8.29409a4.30632,6.7141 0 0 0 2.76718,1.56045l0.04903,0l1.64538,-2.53308c0.41461,-0.63709 1.08639,-0.63794 1.50046,0c0.41407,0.63709 0.41407,1.67173 0,2.30882l-0.14547,0.22426l0.33126,0c0.58569,0 1.06078,0.73138 1.06078,1.6335c0,0.90127 -0.47509,1.63265 -1.06078,1.63265l-0.33126,0l0.14547,0.22426c0.41407,0.63709 0.41407,1.67173 0,2.30967c-0.20703,0.31855 -0.47836,0.47824 -0.74968,0.47824c-0.27187,0 -0.54319,-0.1597 -0.75023,-0.47824l-1.64647,-2.53393l-0.04903,0a6.4415,10.04312 0 0 1 -4.20825,-2.4269c-0.2261,0.32024 -0.45929,0.6269 -0.69956,0.91996c-2.0333,2.48041 -4.5188,3.92194 -7.42437,4.31694a6.58152,10.26143 0 0 1 0.18688,5.39574l-0.0109,0.07645l1.26672,3.10901a1.08857,1.69721 0 0 1 -0.3209,2.32836a1.05479,1.64455 0 0 1 -0.57588,0.26843a1.06405,1.65899 0 0 1 -0.89951,-0.7747l-0.11223,-0.27522l-0.07083,0.51392a1.07113,1.67003 0 0 1 -1.04226,1.32685a1.06241,1.65644 0 0 1 -0.22828,-0.03907a1.08094,1.68532 0 0 1 -0.81615,-2.00472l0.07083,-0.51392l-0.17434,0.17754a1.06023,1.65304 0 0 1 -1.47594,-0.50713a1.08857,1.69721 0 0 1 0.32145,-2.32751l1.97064,-1.99877l0.0109,-0.07645a4.39839,6.85766 0 0 0 -0.38846,-4.58197a24.39357,38.0327 0 0 1 -2.61354,-0.33978c-2.55197,-0.53856 -3.99958,1.21727 -4.38259,1.76772c-3.00636,4.32628 -3.58824,11.97053 -3.59368,12.04784a1.07712,1.67937 0 0 1 -1.06786,1.49249a1.07331,1.67343 0 0 1 -0.88807,-0.73648c-0.0474,-0.11043 -1.17901,-2.74714 -1.67535,-6.46861c-0.67395,-5.05426 0.12967,-9.68975 2.32423,-13.40697a11.27902,17.58544 0 0 1 4.7607,-4.7697l-0.22174,0.09004a4.35317,6.78715 0 0 0 -1.83879,-0.63454l-0.04903,0l-1.65192,2.53393a1.07059,1.66918 0 0 1 -0.75295,0.47824c-0.27241,0 -0.54483,-0.1597 -0.75295,-0.47824a1.03517,1.61397 0 0 1 0,-2.30967l0.14601,-0.22426l-0.33234,0c-0.58841,0 -1.06459,-0.73053 -1.06459,-1.63265c0,-0.90212 0.47672,-1.63265 1.06459,-1.63265l0.33234,0l-0.14601,-0.22426a1.03517,1.61397 0 0 1 0,-2.31052c0.4157,-0.63709 1.08966,-0.63709 1.5059,0l1.65192,2.53393l0.04903,0a6.4671,10.08304 0 0 1 4.71875,3.16507l-0.11823,-0.18943a12.48418,19.46444 0 0 1 2.91592,0.0807c2.69472,0.56914 4.898,-0.01529 6.5995,-1.74308a6.65507,10.37611 0 0 1 -1.47648,-6.54081l0,-0.07815l-1.62795,-2.62142a1.10818,1.72779 0 0 1 0,-2.38867a1.027,1.60122 0 0 1 1.48466,0l0.14438,0.2319l0,-0.52751c0,-0.93355 0.46964,-1.68957 1.04934,-1.68957s1.04988,0.75602 1.04988,1.68957l0,0.52666l0.14438,-0.23105a1.027,1.60122 0 0 1 1.48466,0c0.62437,1.00491 0.17434,2.1092 0,2.38867l-1.62903,2.62142l0,0.0773c0,1.59528 0.34597,3.12005 0.96489,4.33053c0.7693,-1.43218 1.37406,-3.23473 1.81155,-5.40254c-0.31981,-1.38037 -0.81724,-4.64907 0.45112,-8.3561c0.66469,-1.94101 1.94177,-3.9814 3.33271,-5.32524l-0.00054,0z" fill="#3B4262"/>
 </g>
</svg>